<mxfile host="app.diagrams.net" modified="2021-04-22T22:22:25.323Z" agent="5.0 (Windows)" etag="4ffSXJyXPs8uFpaDE_P4" version="14.6.6" type="github">
  <diagram id="prtHgNgQTEPvFCAcTncT" name="Page-1">
    <mxGraphModel dx="1422" dy="773" grid="1" gridSize="10" guides="1" tooltips="1" connect="1" arrows="1" fold="1" page="1" pageScale="1" pageWidth="827" pageHeight="1169" math="0" shadow="0">
      <root>
        <mxCell id="0" />
        <mxCell id="1" parent="0" />
        <mxCell id="FWeo1_BL_VegPmoIYy2M-6" value="&lt;div style=&quot;font-size: 11px;&quot;&gt;Konsultacja&lt;/div&gt;" style="edgeStyle=orthogonalEdgeStyle;rounded=0;orthogonalLoop=1;jettySize=auto;html=1;exitX=0.5;exitY=0;exitDx=0;exitDy=0;entryX=0.5;entryY=1;entryDx=0;entryDy=0;fontFamily=Verdana;startArrow=classic;startFill=0;fontSize=11;" parent="1" source="FWeo1_BL_VegPmoIYy2M-1" target="FWeo1_BL_VegPmoIYy2M-15" edge="1">
          <mxGeometry relative="1" as="geometry">
            <mxPoint x="90" y="525" as="targetPoint" />
            <Array as="points" />
          </mxGeometry>
        </mxCell>
        <mxCell id="FWeo1_BL_VegPmoIYy2M-1" value="Przygotowanie wniosku o ZP" style="triangle;whiteSpace=wrap;html=1;fontFamily=Verdana;align=left;strokeWidth=2;rounded=1;fillColor=#cccccf;strokeColor=#6C6C6C;fontColor=#162632;" parent="1" vertex="1">
          <mxGeometry x="20" y="375" width="140" height="120" as="geometry" />
        </mxCell>
        <mxCell id="FWeo1_BL_VegPmoIYy2M-41" style="edgeStyle=none;orthogonalLoop=1;jettySize=auto;html=1;fontFamily=Verdana;fontSize=12;fontColor=#162632;startArrow=classic;" parent="1" source="FWeo1_BL_VegPmoIYy2M-11" target="FWeo1_BL_VegPmoIYy2M-33" edge="1">
          <mxGeometry relative="1" as="geometry" />
        </mxCell>
        <mxCell id="FWeo1_BL_VegPmoIYy2M-47" style="edgeStyle=none;orthogonalLoop=1;jettySize=auto;html=1;exitX=0;exitY=1;exitDx=0;exitDy=0;fontFamily=Verdana;fontSize=12;fontColor=#162632;startArrow=none;startFill=0;" parent="1" source="FWeo1_BL_VegPmoIYy2M-11" target="FWeo1_BL_VegPmoIYy2M-46" edge="1">
          <mxGeometry relative="1" as="geometry" />
        </mxCell>
        <mxCell id="FWeo1_BL_VegPmoIYy2M-11" value="&lt;div style=&quot;font-size: 12px;&quot;&gt;Biuro SSPW&lt;br style=&quot;font-size: 12px;&quot;&gt;&lt;/div&gt;" style="ellipse;whiteSpace=wrap;html=1;aspect=fixed;rounded=1;fontFamily=Verdana;fontSize=12;strokeWidth=2;fillColor=#CCCCCF;align=center;strokeColor=#C85800;fontStyle=1;fontColor=#162632;" parent="1" vertex="1">
          <mxGeometry x="334" y="375" width="120" height="120" as="geometry" />
        </mxCell>
        <mxCell id="FWeo1_BL_VegPmoIYy2M-15" value="Pan Brzuska" style="rounded=1;whiteSpace=wrap;html=1;fontFamily=Verdana;fontSize=12;strokeColor=#6C6C6C;strokeWidth=2;fillColor=#CCCCCF;align=center;fontColor=#162632;" parent="1" vertex="1">
          <mxGeometry x="35" y="280" width="110" height="60" as="geometry" />
        </mxCell>
        <mxCell id="FWeo1_BL_VegPmoIYy2M-16" value="" style="endArrow=classic;html=1;fontFamily=Verdana;fontSize=12;fontColor=#162632;exitX=1;exitY=0.5;exitDx=0;exitDy=0;entryX=0;entryY=0.5;entryDx=0;entryDy=0;startArrow=classic;startFill=0;" parent="1" source="FWeo1_BL_VegPmoIYy2M-1" target="FWeo1_BL_VegPmoIYy2M-11" edge="1">
          <mxGeometry relative="1" as="geometry">
            <mxPoint x="160" y="435" as="sourcePoint" />
            <mxPoint x="260" y="435" as="targetPoint" />
          </mxGeometry>
        </mxCell>
        <mxCell id="FWeo1_BL_VegPmoIYy2M-17" value="" style="shape=message;html=1;outlineConnect=0;" parent="FWeo1_BL_VegPmoIYy2M-16" vertex="1">
          <mxGeometry width="20" height="14" relative="1" as="geometry">
            <mxPoint x="-10" y="-7" as="offset" />
          </mxGeometry>
        </mxCell>
        <mxCell id="FWeo1_BL_VegPmoIYy2M-24" value="" style="endArrow=classic;startArrow=classic;html=1;fontFamily=Verdana;fontSize=12;fontColor=#162632;entryX=1;entryY=1;entryDx=0;entryDy=0;exitX=0;exitY=0;exitDx=0;exitDy=0;" parent="1" source="FWeo1_BL_VegPmoIYy2M-11" target="FWeo1_BL_VegPmoIYy2M-25" edge="1">
          <mxGeometry width="50" height="50" relative="1" as="geometry">
            <mxPoint x="350" y="415" as="sourcePoint" />
            <mxPoint x="310" y="345" as="targetPoint" />
          </mxGeometry>
        </mxCell>
        <mxCell id="FWeo1_BL_VegPmoIYy2M-25" value="&#xa;Podpisanie przez Przedstawicieli Merytorycznych&#xa;&#xa;" style="rounded=1;whiteSpace=wrap;html=1;fontFamily=Verdana;fontSize=12;fontColor=#162632;strokeWidth=2;fillColor=#CCCCCF;align=center;strokeColor=#C85800;labelPosition=center;verticalLabelPosition=middle;verticalAlign=middle;" parent="1" vertex="1">
          <mxGeometry x="180" y="275" width="130" height="65" as="geometry" />
        </mxCell>
        <mxCell id="FWeo1_BL_VegPmoIYy2M-26" value="" style="endArrow=classic;startArrow=classic;html=1;fontFamily=Verdana;fontSize=12;fontColor=#162632;entryX=1;entryY=0.5;entryDx=0;entryDy=0;exitX=0;exitY=0.5;exitDx=0;exitDy=0;" parent="1" source="FWeo1_BL_VegPmoIYy2M-33" target="FWeo1_BL_VegPmoIYy2M-11" edge="1">
          <mxGeometry width="50" height="50" relative="1" as="geometry">
            <mxPoint x="540" y="435" as="sourcePoint" />
            <mxPoint x="400" y="455" as="targetPoint" />
          </mxGeometry>
        </mxCell>
        <mxCell id="FWeo1_BL_VegPmoIYy2M-27" value="Biuro Spraw Studenckich" style="ellipse;whiteSpace=wrap;html=1;aspect=fixed;rounded=1;fontFamily=Verdana;fontSize=12;fontColor=#162632;strokeColor=#C85800;strokeWidth=2;fillColor=#CCCCCF;align=center;fontStyle=1" parent="1" vertex="1">
          <mxGeometry x="340.5" y="208" width="107" height="107" as="geometry" />
        </mxCell>
        <mxCell id="FWeo1_BL_VegPmoIYy2M-28" value="" style="endArrow=classic;startArrow=classic;html=1;fontFamily=Verdana;fontSize=12;fontColor=#162632;exitX=0.5;exitY=0;exitDx=0;exitDy=0;entryX=0.5;entryY=1;entryDx=0;entryDy=0;" parent="1" source="FWeo1_BL_VegPmoIYy2M-11" target="FWeo1_BL_VegPmoIYy2M-27" edge="1">
          <mxGeometry width="50" height="50" relative="1" as="geometry">
            <mxPoint x="370" y="355" as="sourcePoint" />
            <mxPoint x="420" y="305" as="targetPoint" />
          </mxGeometry>
        </mxCell>
        <mxCell id="FWeo1_BL_VegPmoIYy2M-30" value="Potwierdzenie przez Kwestora dostępności środków" style="rounded=1;whiteSpace=wrap;html=1;fontFamily=Verdana;fontSize=12;fontColor=#162632;strokeColor=#C85800;strokeWidth=2;fillColor=#CCCCCF;align=center;" parent="1" vertex="1">
          <mxGeometry x="331" y="95" width="126" height="70" as="geometry" />
        </mxCell>
        <mxCell id="FWeo1_BL_VegPmoIYy2M-32" value="" style="endArrow=classic;startArrow=classic;html=1;fontFamily=Verdana;fontSize=12;fontColor=#162632;exitX=0.5;exitY=0;exitDx=0;exitDy=0;entryX=0.5;entryY=1;entryDx=0;entryDy=0;" parent="1" source="FWeo1_BL_VegPmoIYy2M-27" target="FWeo1_BL_VegPmoIYy2M-30" edge="1">
          <mxGeometry width="50" height="50" relative="1" as="geometry">
            <mxPoint x="370" y="355" as="sourcePoint" />
            <mxPoint x="420" y="305" as="targetPoint" />
          </mxGeometry>
        </mxCell>
        <mxCell id="FWeo1_BL_VegPmoIYy2M-33" value="Biuro Prorektora ds.Studenckich" style="ellipse;whiteSpace=wrap;html=1;aspect=fixed;rounded=1;fontFamily=Verdana;fontSize=12;fontColor=#162632;strokeColor=#C85800;strokeWidth=2;fillColor=#CCCCCF;align=center;fontStyle=1" parent="1" vertex="1">
          <mxGeometry x="550" y="376.5" width="117" height="117" as="geometry" />
        </mxCell>
        <mxCell id="FWeo1_BL_VegPmoIYy2M-37" value="Złożenie podpisu przez Prorektora, jako osoby składającej wniosek" style="rounded=1;whiteSpace=wrap;html=1;fontFamily=Verdana;fontSize=12;fontColor=#162632;strokeColor=#C85800;strokeWidth=2;fillColor=#CCCCCF;align=center;" parent="1" vertex="1">
          <mxGeometry x="720" y="392.5" width="140" height="85" as="geometry" />
        </mxCell>
        <mxCell id="FWeo1_BL_VegPmoIYy2M-40" value="" style="endArrow=classic;startArrow=classic;html=1;fontFamily=Verdana;fontSize=12;fontColor=#162632;entryX=1;entryY=0.5;entryDx=0;entryDy=0;exitX=0;exitY=0.5;exitDx=0;exitDy=0;" parent="1" source="FWeo1_BL_VegPmoIYy2M-37" target="FWeo1_BL_VegPmoIYy2M-33" edge="1">
          <mxGeometry width="50" height="50" relative="1" as="geometry">
            <mxPoint x="370" y="355" as="sourcePoint" />
            <mxPoint x="420" y="305" as="targetPoint" />
          </mxGeometry>
        </mxCell>
        <mxCell id="FWeo1_BL_VegPmoIYy2M-45" value="&lt;div&gt;&lt;br&gt;&lt;/div&gt;&lt;div&gt;Prorektor&lt;/div&gt;" style="shape=actor;whiteSpace=wrap;html=1;rounded=1;fontFamily=Verdana;fontSize=12;fontColor=#162632;strokeColor=#C85800;strokeWidth=2;fillColor=#CCCCCF;align=center;" parent="1" vertex="1">
          <mxGeometry x="745" y="332.5" width="90" height="60" as="geometry" />
        </mxCell>
        <mxCell id="FWeo1_BL_VegPmoIYy2M-49" style="edgeStyle=none;orthogonalLoop=1;jettySize=auto;html=1;exitX=1;exitY=0.5;exitDx=0;exitDy=0;entryX=0;entryY=0.5;entryDx=0;entryDy=0;fontFamily=Verdana;fontSize=12;fontColor=#162632;startArrow=none;startFill=0;" parent="1" source="FWeo1_BL_VegPmoIYy2M-46" target="FWeo1_BL_VegPmoIYy2M-48" edge="1">
          <mxGeometry relative="1" as="geometry" />
        </mxCell>
        <mxCell id="FWeo1_BL_VegPmoIYy2M-46" value="Dział Zamówień Publicznych" style="ellipse;whiteSpace=wrap;html=1;aspect=fixed;rounded=1;fontFamily=Verdana;fontSize=12;fontColor=#162632;strokeWidth=2;fillColor=#CCCCCF;align=center;fontStyle=1;strokeColor=#162632;" parent="1" vertex="1">
          <mxGeometry x="224" y="531" width="107" height="107" as="geometry" />
        </mxCell>
        <mxCell id="FWeo1_BL_VegPmoIYy2M-50" style="edgeStyle=none;orthogonalLoop=1;jettySize=auto;html=1;exitX=0;exitY=0;exitDx=0;exitDy=0;entryX=1;entryY=1;entryDx=0;entryDy=0;fontFamily=Verdana;fontSize=12;fontColor=#162632;startArrow=none;startFill=0;" parent="1" source="FWeo1_BL_VegPmoIYy2M-48" target="FWeo1_BL_VegPmoIYy2M-11" edge="1">
          <mxGeometry relative="1" as="geometry" />
        </mxCell>
        <mxCell id="FWeo1_BL_VegPmoIYy2M-48" value="Biuro Kanclerza" style="ellipse;whiteSpace=wrap;html=1;aspect=fixed;rounded=1;fontFamily=Verdana;fontSize=12;fontColor=#162632;strokeWidth=2;fillColor=#CCCCCF;align=center;fontStyle=1;strokeColor=#162632;" parent="1" vertex="1">
          <mxGeometry x="457" y="531" width="107" height="107" as="geometry" />
        </mxCell>
        <mxCell id="FWeo1_BL_VegPmoIYy2M-51" value="&lt;div&gt;&lt;br&gt;&lt;/div&gt;&lt;div&gt;PM&lt;/div&gt;" style="shape=actor;whiteSpace=wrap;html=1;rounded=1;fontFamily=Verdana;fontSize=12;fontColor=#162632;strokeColor=#C85800;strokeWidth=2;fillColor=#CCCCCF;align=center;" parent="1" vertex="1">
          <mxGeometry x="250" y="215" width="40" height="60" as="geometry" />
        </mxCell>
        <mxCell id="FWeo1_BL_VegPmoIYy2M-52" value="&lt;div&gt;&lt;br&gt;&lt;/div&gt;&lt;div&gt;PM&lt;/div&gt;" style="shape=actor;whiteSpace=wrap;html=1;rounded=1;fontFamily=Verdana;fontSize=12;fontColor=#162632;strokeColor=#C85800;strokeWidth=2;fillColor=#CCCCCF;align=center;" parent="1" vertex="1">
          <mxGeometry x="200" y="215" width="40" height="60" as="geometry" />
        </mxCell>
        <mxCell id="FWeo1_BL_VegPmoIYy2M-54" value="Ostateczna akceptacja Kanclerza" style="rounded=1;whiteSpace=wrap;html=1;fontFamily=Verdana;fontSize=12;strokeColor=#82b366;strokeWidth=2;fillColor=#d5e8d4;align=center;" parent="1" vertex="1">
          <mxGeometry x="447.5" y="710" width="126" height="70" as="geometry" />
        </mxCell>
        <mxCell id="FWeo1_BL_VegPmoIYy2M-56" value="" style="endArrow=classic;startArrow=classic;html=1;fontFamily=Verdana;fontSize=12;fontColor=#162632;exitX=0.5;exitY=1;exitDx=0;exitDy=0;entryX=0.5;entryY=0;entryDx=0;entryDy=0;" parent="1" source="FWeo1_BL_VegPmoIYy2M-46" target="FWeo1_BL_VegPmoIYy2M-58" edge="1">
          <mxGeometry width="50" height="50" relative="1" as="geometry">
            <mxPoint x="370" y="670" as="sourcePoint" />
            <mxPoint x="278" y="710" as="targetPoint" />
          </mxGeometry>
        </mxCell>
        <mxCell id="FWeo1_BL_VegPmoIYy2M-58" value="Weryfikacja podstawy prawnej oraz trybu procedowania" style="rounded=1;whiteSpace=wrap;html=1;fontFamily=Verdana;fontSize=12;fontColor=#162632;strokeWidth=2;fillColor=#CCCCCF;align=center;strokeColor=#162632;" parent="1" vertex="1">
          <mxGeometry x="214.5" y="710" width="126" height="70" as="geometry" />
        </mxCell>
        <mxCell id="FWeo1_BL_VegPmoIYy2M-59" value="" style="endArrow=classic;startArrow=classic;html=1;fontFamily=Verdana;fontSize=12;fontColor=#162632;exitX=0.5;exitY=1;exitDx=0;exitDy=0;entryX=0.5;entryY=0;entryDx=0;entryDy=0;" parent="1" source="FWeo1_BL_VegPmoIYy2M-48" target="FWeo1_BL_VegPmoIYy2M-54" edge="1">
          <mxGeometry width="50" height="50" relative="1" as="geometry">
            <mxPoint x="370" y="610" as="sourcePoint" />
            <mxPoint x="420" y="560" as="targetPoint" />
          </mxGeometry>
        </mxCell>
      </root>
    </mxGraphModel>
  </diagram>
</mxfile>
